<svg width="137" height="28" viewBox="0 0 137 28" fill="none" xmlns="http://www.w3.org/2000/svg">
<path d="M24.21 22.18V23.53H0V22.18H24.21ZM4.62 2.68001V7.93001H19.56V2.68001H21.12V16.33H3.03V2.68001H4.62ZM4.62 14.98H19.56V9.28001H4.62V14.98Z" fill="white"/>
<path d="M43.3177 19.63H41.7877V1.15001H43.3177V8.83002H47.7877V0.640015H49.3177V20.5H47.7877V10.18H43.3177V19.63ZM40.2877 15.43C39.3877 15.61 38.5177 15.76 37.6777 15.88C36.8577 16 36.0277 16.09 35.1877 16.15C34.3677 16.21 33.5277 16.26 32.6677 16.3C31.8277 16.32 30.9377 16.33 29.9977 16.33H28.3477V8.89001H36.6877V4.33001H28.2577V3.01001H38.2177V10.18H29.8777V14.98H29.9977C31.8377 14.98 33.5477 14.93 35.1277 14.83C36.7077 14.71 38.3577 14.46 40.0777 14.08L40.2877 15.43ZM50.2177 25.27V26.62H32.2777V18.76H33.8677V25.27H50.2177Z" fill="white"/>
<path d="M75.2353 15.07H57.2353V3.25002H74.9653V4.60001H58.7953V13.72H75.2353V15.07ZM78.1753 22.06V23.41H53.9953V22.06H78.1753Z" fill="white"/>
<path d="M109.153 15.46C108.253 15.26 107.303 14.93 106.303 14.47C105.303 14.01 104.333 13.45 103.393 12.79C102.453 12.13 101.593 11.37 100.813 10.51C100.053 9.63001 99.4634 8.68001 99.0434 7.66001C98.6234 8.68001 98.0334 9.63001 97.2734 10.51C96.5134 11.37 95.6634 12.13 94.7234 12.79C93.7834 13.45 92.8134 14.01 91.8134 14.47C90.8134 14.93 89.8634 15.26 88.9634 15.46L88.2434 14.17C89.2034 13.97 90.2634 13.6 91.4234 13.06C92.5834 12.5 93.6634 11.81 94.6634 10.99C95.6634 10.15 96.5034 9.20001 97.1834 8.14001C97.8634 7.08001 98.2034 5.94001 98.2034 4.72001V2.59002H99.8534V4.72001C99.8534 5.92001 100.193 7.06001 100.873 8.14001C101.553 9.20001 102.403 10.15 103.423 10.99C104.443 11.81 105.533 12.5 106.693 13.06C107.853 13.6 108.913 13.97 109.873 14.17L109.153 15.46ZM111.223 22.27V23.62H87.0434V22.27H98.2334V15.46H99.8234V22.27H111.223Z" fill="white"/>
<path d="M125.381 4.18001C125.381 5.78001 125.211 7.38002 124.871 8.98001C124.531 10.58 123.961 12.12 123.161 13.6C122.381 15.08 121.341 16.49 120.041 17.83C118.741 19.15 117.131 20.34 115.211 21.4L114.251 20.23C115.911 19.33 117.331 18.32 118.511 17.2C119.691 16.08 120.661 14.89 121.421 13.63C122.181 12.37 122.751 11.06 123.131 9.70001C123.511 8.32001 123.741 6.93001 123.821 5.53001H115.091V4.18001H125.381ZM136.511 0.640015V27.28H134.981V13.09H130.571V25.84H129.041V1.36001H130.571V11.74H134.981V0.640015H136.511Z" fill="white"/>
</svg>
