<svg width="35" height="35" viewBox="0 0 35 35" fill="none" xmlns="http://www.w3.org/2000/svg">
<path d="M4.29003 16.4969L4.2835 16.4883C3.0801 14.9015 2.44231 13.0302 2.44231 11.0695C2.44231 6.4308 5.95736 2.63643 10.325 2.63643C12.8335 2.63643 15.1854 3.90645 16.6171 6.03754L16.6174 6.038L17.5 7.358L18.3822 6.03848L4.29003 16.4969ZM4.29003 16.4969L4.29729 16.5049M4.29003 16.4969L4.29729 16.5049M4.29729 16.5049L17.3146 30.8958L17.4998 31.1005M4.29729 16.5049L17.4998 31.1005M17.4998 31.1005L17.6852 30.896M17.4998 31.1005L17.6852 30.896M17.6852 30.896L30.5544 16.7072L30.5652 16.6953M17.6852 30.896L30.5652 16.6953M30.5652 16.6953L30.5744 16.6821M30.5652 16.6953L30.5744 16.6821M30.5744 16.6821L31.3686 15.542L31.3746 15.5334M30.5744 16.6821L31.3746 15.5334M31.3746 15.5334L31.3798 15.5244M31.3746 15.5334L31.3798 15.5244M31.3798 15.5244C32.129 14.2303 32.5577 12.6716 32.5577 11.0695M31.3798 15.5244L32.5577 11.0695M32.5577 11.0695C32.5577 6.4308 29.0426 2.63643 24.675 2.63643M32.5577 11.0695L24.675 2.63643M24.675 2.63643C22.1536 2.63643 19.8013 3.90595 18.3826 6.038L24.675 2.63643ZM34.75 11.0695C34.75 13.1288 34.1982 15.1454 33.1611 16.8941L32.2328 18.2162L17.5 34.6257L2.6295 18.0541C1.07732 16.0056 0.25 13.5505 0.25 11.0695C0.25 5.08605 4.78495 0.25 10.325 0.25C12.9737 0.25 15.4928 1.36047 17.3178 3.30295L17.5 3.49689L17.6822 3.30295C19.5072 1.36047 22.0263 0.25 24.675 0.25C30.215 0.25 34.75 5.08605 34.75 11.0695Z" fill="white" stroke="#2B2B2B" stroke-width="0.5"/>
</svg>
