<svg width="88" height="22" viewBox="0 0 88 22" fill="none" xmlns="http://www.w3.org/2000/svg">
<path d="M0 7.85061V6.82031H7.80588V7.85061H0Z" fill="white"/>
<path d="M17.5632 0C18.9055 0 20.0516 0.268687 21.0015 0.80404C21.9515 1.33939 22.6784 2.06667 23.1864 2.98586C23.6923 3.90505 23.9442 4.95151 23.9442 6.12323C23.9442 6.34545 23.9339 6.77576 23.9133 7.00808C23.8926 7.2404 23.8141 7.66869 23.7522 7.8505H14.5586C14.5792 10.0323 14.9757 11.1798 15.7501 12.1394C16.5245 13.097 17.6768 13.5758 19.2049 13.5758C20.2375 13.5758 21.0738 13.4141 21.714 13.0909C22.3541 12.7677 22.953 12.2929 23.5106 11.6667L23.8203 11.9394C23.1802 13.0505 22.3273 13.9192 21.2638 14.5455C20.2003 15.1717 18.9241 15.4848 17.4373 15.4848C15.9711 15.4848 14.6701 15.1758 13.5343 14.5616C12.3985 13.9455 11.5106 13.0606 10.8704 11.9111C10.2302 10.7596 9.91016 9.38586 9.91016 7.7899C9.91016 6.13333 10.2819 4.72525 11.0253 3.56364C11.7708 2.4 12.7248 1.51515 13.8916 0.909091C15.0583 0.30303 16.2829 0 17.5632 0ZM17.4703 0.606061C16.8714 0.606061 16.3593 0.783838 15.936 1.13535C15.5126 1.48889 15.1822 2.11515 14.9447 3.01414C14.7073 3.91313 14.5772 5.1798 14.5565 6.81818H19.8534C20.0599 4.61616 19.9773 3.0303 19.6056 2.06061C19.2359 1.09091 18.5235 0.606061 17.4703 0.606061Z" fill="white"/>
<path d="M30.852 15.4848C29.8401 15.4848 28.9315 15.3676 28.1261 15.1373C27.3207 14.905 26.5773 14.6181 25.8959 14.2727L25.9268 10.6666H26.2366L27.2898 12.4848C27.7441 13.2929 28.2438 13.8929 28.7911 14.2888C29.3383 14.6828 30.0342 14.8787 30.8809 14.8787C31.8721 14.8787 32.6713 14.6626 33.2805 14.2282C33.8897 13.7939 34.1932 13.2121 34.1932 12.4868C34.1932 11.8201 33.9764 11.2747 33.5427 10.8504C33.1091 10.4262 32.3037 10.0424 31.1266 9.69892L29.8256 9.30498C28.566 8.94135 27.5747 8.37569 26.852 7.60801C26.1292 6.84034 25.7678 5.90094 25.7678 4.78983C25.7678 3.4565 26.3047 2.32519 27.3786 1.39589C28.4524 0.466599 29.9908 0.00195312 31.9939 0.00195312C32.7993 0.00195312 33.5593 0.0888218 34.2717 0.258519C34.9841 0.430236 35.6697 0.688822 36.3305 1.03226L36.1447 4.30498H35.8349L34.7549 2.42418C34.3626 1.75751 33.9743 1.28882 33.5944 1.01407C33.2103 0.741347 32.6362 0.605993 31.8742 0.605993C31.1721 0.605993 30.5112 0.797913 29.8917 1.18175C29.2722 1.56559 28.9625 2.11104 28.9625 2.81811C28.9625 3.50498 29.2268 4.05044 29.7513 4.45448C30.2779 4.85852 31.0564 5.23226 32.091 5.57569L33.4849 5.96963C34.9717 6.41407 36.0352 7.0262 36.6754 7.80397C37.3156 8.58175 37.6357 9.5171 37.6357 10.608C37.6357 12.0828 37.0409 13.2646 35.8556 14.1535C34.6661 15.0403 32.9976 15.4848 30.852 15.4848Z" fill="white"/>
<path d="M48.0414 22V21.697L48.6919 21.5455C49.4766 21.3232 49.8689 20.8182 49.8689 20.0303V14C49.2701 14.4444 48.5845 14.802 47.8101 15.0768C47.0357 15.3515 46.1725 15.4848 45.2226 15.4848C43.4673 15.4848 42.0114 14.8384 40.855 13.5455C39.6986 12.2525 39.1204 10.3737 39.1204 7.90909C39.1204 6.21212 39.4095 4.77778 39.9877 3.60606C40.5659 2.43434 41.3651 1.54141 42.3873 0.923232C43.4115 0.309091 44.5927 0 45.935 0C46.8436 0 47.6738 0.131313 48.4296 0.393939C49.1833 0.656566 49.8483 0.989899 50.4265 1.39394L53.9577 0L54.2675 0.30303L54.1746 4.39394V20.1212C54.1746 20.9495 54.5463 21.4444 55.2897 21.6061L55.5685 21.697V22H48.0414ZM47.267 14.2727C48.1343 14.2727 48.9706 13.9495 49.776 13.303V1.78788C49.425 1.56566 49.0636 1.40404 48.6919 1.30303C48.3202 1.20202 47.8762 1.15152 47.3599 1.15152C46.2654 1.15152 45.3981 1.67273 44.7579 2.71111C44.1178 3.75152 43.7977 5.46465 43.7977 7.84848C43.7977 10.1717 44.1075 11.8242 44.727 12.802C45.3465 13.7838 46.1932 14.2727 47.267 14.2727Z" fill="white"/>
<path d="M62.0113 15.4849C61.2059 15.4849 60.4666 15.3334 59.7975 15.0304C59.1264 14.7273 58.5998 14.2385 58.2178 13.5617C57.8357 12.8849 57.6561 11.992 57.6767 10.8809L57.7696 3.093C57.7696 2.62835 57.687 2.29502 57.5218 2.093C57.3566 1.89098 57.0985 1.74956 56.7474 1.66875L56.3757 1.54754V1.24451L61.9204 0.183905L62.2301 0.486935L62.0753 4.78997V12.093C62.0753 12.7395 62.2653 13.2142 62.6493 13.5172C63.0314 13.8203 63.5105 13.9718 64.0887 13.9718C64.6669 13.9718 65.1832 13.891 65.6375 13.7294C66.0918 13.5677 66.5461 13.3253 67.0004 13.0021L67.1243 3.1233C67.1243 2.65865 67.052 2.33138 66.9075 2.13744C66.7629 1.94552 66.4945 1.81017 66.1021 1.72734L65.7924 1.63643V1.3334L71.2131 0.181885L71.5229 0.484915L71.4299 4.78795V13.0001C71.4299 13.4445 71.4919 13.7879 71.6158 14.0304C71.7397 14.2728 72.0081 14.4748 72.4212 14.6364L72.7309 14.7273V15.0304L67.3102 15.3334L67.0314 13.5455C66.3499 14.091 65.6106 14.5516 64.8176 14.9253C64.0205 15.297 63.0851 15.4849 62.0113 15.4849Z" fill="white"/>
<path d="M81.6189 0C82.9612 0 84.1073 0.268687 85.0572 0.80404C86.0071 1.33939 86.734 2.06667 87.242 2.98586C87.748 3.90505 87.9999 4.95152 87.9999 6.12323C87.9999 6.34545 87.9896 6.77576 87.9689 7.00808C87.9483 7.2404 87.8677 7.67071 87.8058 7.85253L78.6142 7.84848C78.6349 10.0303 79.0335 11.1798 79.8078 12.1394C80.5822 13.099 81.7325 13.5778 83.2606 13.5778C84.2931 13.5778 85.1295 13.4162 85.7696 13.0929C86.4098 12.7697 87.0087 12.2949 87.5662 11.6687L87.876 11.9414C87.2358 13.0525 86.383 13.9212 85.3195 14.5475C84.256 15.1737 82.9798 15.4869 81.4929 15.4869C80.0267 15.4869 78.7258 15.1778 77.59 14.5636C76.4542 13.9475 75.5662 13.0626 74.9261 11.9131C74.2859 10.7616 73.9658 9.38788 73.9658 7.79192C73.9658 6.13535 74.3375 4.72727 75.0809 3.56566C75.8244 2.40404 76.7784 1.52121 77.9472 0.915152C79.1161 0.30303 80.3386 0 81.6189 0ZM81.526 0.606061C80.9271 0.606061 80.415 0.783838 79.9937 1.13535C79.5704 1.48889 79.24 2.11515 79.0025 3.01414C78.765 3.91313 78.6349 5.1798 78.6142 6.81818H83.9111C84.1176 4.61616 84.035 3.0303 83.6633 2.06061C83.2916 1.09091 82.5791 0.606061 81.526 0.606061Z" fill="white"/>
</svg>
