<svg width="75" height="26" viewBox="0 0 75 26" fill="none" xmlns="http://www.w3.org/2000/svg">
<path d="M0.558472 0.942993H3.19847L8.14847 14.77L10.0295 20.05H10.1615C10.4695 19.17 10.7665 18.29 11.0525 17.41C11.3385 16.53 11.6355 15.65 11.9435 14.77L16.8935 0.942993H19.5335V25H17.6525V9.75399C17.6525 8.76399 17.6745 7.66399 17.7185 6.45399C17.7845 5.24399 17.8395 4.13299 17.8835 3.12099H17.7515L15.8705 8.49999L10.8215 22.426H9.23747L4.15547 8.49999L2.27447 3.12099H2.14247C2.18647 4.13299 2.23047 5.24399 2.27447 6.45399C2.34047 7.66399 2.37347 8.76399 2.37347 9.75399V25H0.558472V0.942993Z" fill="white"/>
<path d="M29.6681 15.331L22.4411 0.942993H24.5531L28.0841 8.30199C28.5241 9.18199 28.9421 10.051 29.3381 10.909C29.7341 11.745 30.1521 12.614 30.5921 13.516H30.7241C31.1861 12.614 31.6371 11.745 32.0771 10.909C32.5171 10.051 32.9241 9.18199 33.2981 8.30199L36.8291 0.942993H38.8751L31.6481 15.331V25H29.6681V15.331Z" fill="white"/>
<path fill-rule="evenodd" clip-rule="evenodd" d="M67.4829 0C65.51 0 63.6365 0.832 62.2753 2.288L62 2.58844L61.7247 2.288C60.3635 0.832 58.4824 0 56.5171 0C52.3953 0 49 3.62844 49 8.14281C49 10.0071 49.6194 11.856 50.7741 13.4044L62 26L73.1188 13.5277L73.8147 12.5262C74.5871 11.2089 75 9.69126 75 8.14281C75 3.62844 71.6047 0 67.4829 0ZM72.7824 11.6711L72.7747 11.6865L72.1476 12.5956L62 23.8584L51.7529 12.4492L51.7453 12.4338C50.7971 11.1781 50.3 9.69896 50.3 8.14281C50.3 4.47585 53.0606 1.456 56.5171 1.456C58.4976 1.456 60.3559 2.46519 61.4876 4.16L62 4.93807L62.5124 4.16C63.6288 2.46519 65.4871 1.456 67.4829 1.456C70.9394 1.456 73.7 4.47585 73.7 8.14281C73.7076 9.41393 73.3712 10.6465 72.7824 11.6711Z" fill="white"/>
</svg>
