<svg width="88" height="27" viewBox="0 0 88 27" fill="none" xmlns="http://www.w3.org/2000/svg">
<path d="M11.58 23.38V24.82H0.33V23.38H5.31V6.01003C5.31 5.67003 5.33 5.30003 5.37 4.90003L0.93 8.89003L0 7.81003L5.64 2.83003H6.93V23.38H11.58Z" fill="white"/>
<path d="M16.976 10.57C16.576 10.57 16.216 10.43 15.896 10.15C15.596 9.85003 15.446 9.45003 15.446 8.95003C15.446 8.43003 15.596 8.03003 15.896 7.75003C16.216 7.45003 16.576 7.30003 16.976 7.30003C17.376 7.30003 17.726 7.45003 18.026 7.75003C18.346 8.03003 18.506 8.43003 18.506 8.95003C18.506 9.45003 18.346 9.85003 18.026 10.15C17.726 10.43 17.376 10.57 16.976 10.57ZM16.976 23.11C16.576 23.11 16.216 22.97 15.896 22.69C15.596 22.39 15.446 21.99 15.446 21.49C15.446 20.97 15.596 20.57 15.896 20.29C16.216 19.99 16.576 19.84 16.976 19.84C17.376 19.84 17.726 19.99 18.026 20.29C18.346 20.57 18.506 20.97 18.506 21.49C18.506 21.99 18.346 22.39 18.026 22.69C17.726 22.97 17.376 23.11 16.976 23.11Z" fill="white"/>
<path d="M35.546 23.38V24.82H24.296V23.38H29.276V6.01003C29.276 5.67003 29.296 5.30003 29.336 4.90003L24.896 8.89003L23.966 7.81003L29.606 2.83003H30.896V23.38H35.546Z" fill="white"/>
<path d="M58.312 2.92003H43.612V9.28003H58.312V2.92003ZM59.842 10.6H42.052V1.60003H59.842V10.6ZM43.672 24.91H60.352V26.26H42.082V18.67H43.672V24.91ZM63.052 14.14V15.49H51.832V21.43H50.242V15.49H38.842V14.14H63.052Z" fill="white"/>
<path d="M74.5697 2.32003C75.6097 2.32003 76.5597 2.47003 77.4197 2.77003C78.2797 3.05003 79.0197 3.46003 79.6397 4.00003C80.2597 4.54003 80.7397 5.19003 81.0797 5.95003C81.4197 6.69003 81.5897 7.51003 81.5897 8.41003C81.5897 9.31003 81.4197 10.14 81.0797 10.9C80.7397 11.64 80.2597 12.28 79.6397 12.82C79.0197 13.36 78.2797 13.78 77.4197 14.08C76.5597 14.36 75.6097 14.5 74.5697 14.5C73.5297 14.5 72.5797 14.36 71.7197 14.08C70.8597 13.78 70.1197 13.36 69.4997 12.82C68.8797 12.28 68.3997 11.64 68.0597 10.9C67.7197 10.14 67.5497 9.31003 67.5497 8.41003C67.5497 7.51003 67.7197 6.69003 68.0597 5.95003C68.3997 5.19003 68.8797 4.54003 69.4997 4.00003C70.1197 3.46003 70.8597 3.05003 71.7197 2.77003C72.5797 2.47003 73.5297 2.32003 74.5697 2.32003ZM74.5697 3.70003C73.7697 3.70003 73.0297 3.82003 72.3497 4.06003C71.6897 4.28003 71.1097 4.60003 70.6097 5.02003C70.1297 5.44003 69.7497 5.94003 69.4697 6.52003C69.2097 7.10003 69.0797 7.73003 69.0797 8.41003C69.0797 9.09003 69.2097 9.72003 69.4697 10.3C69.7497 10.88 70.1297 11.38 70.6097 11.8C71.1097 12.22 71.6897 12.55 72.3497 12.79C73.0297 13.01 73.7697 13.12 74.5697 13.12C75.3697 13.12 76.0997 13.01 76.7597 12.79C77.4397 12.55 78.0197 12.22 78.4997 11.8C78.9997 11.38 79.3797 10.88 79.6397 10.3C79.9197 9.72003 80.0597 9.09003 80.0597 8.41003C80.0597 7.73003 79.9197 7.10003 79.6397 6.52003C79.3797 5.94003 78.9997 5.44003 78.4997 5.02003C78.0197 4.60003 77.4397 4.28003 76.7597 4.06003C76.0997 3.82003 75.3697 3.70003 74.5697 3.70003ZM87.2597 0.280029V26.95H85.6697V0.280029H87.2597ZM66.0497 19.42C67.2897 19.42 68.6297 19.42 70.0697 19.42C71.5297 19.4 73.0197 19.36 74.5397 19.3C76.0797 19.24 77.6297 19.15 79.1897 19.03C80.7697 18.89 82.2997 18.7 83.7797 18.46L83.9297 19.69C82.3897 19.97 80.8297 20.19 79.2497 20.35C77.6897 20.49 76.1497 20.6 74.6297 20.68C73.1297 20.74 71.6697 20.78 70.2497 20.8C68.8497 20.8 67.5397 20.8 66.3197 20.8L66.0497 19.42Z" fill="white"/>
</svg>
