<svg width="49" height="27" viewBox="0 0 49 27" fill="none" xmlns="http://www.w3.org/2000/svg">
<path d="M13.23 1.8C13.23 3.44 12.93 4.97 12.33 6.39C11.73 7.79 10.88 9.06 9.78 10.2C8.7 11.34 7.38 12.35 5.82 13.23C4.28 14.09 2.57 14.79 0.69 15.33L0 14.01C1.66 13.53 3.17 12.94 4.53 12.24C5.91 11.52 7.1 10.71 8.1 9.81C9.1 8.89 9.89 7.87 10.47 6.75C11.07 5.63 11.42 4.43 11.52 3.15H1.29V1.8H13.23ZM5.88 24.87H19.74V17.85H5.88V24.87ZM4.35 16.56H21.3V26.19H4.35V16.56ZM21.3 0V15.39H19.71V8.55H13.2V7.2H19.71V0H21.3Z" fill="white"/>
<path d="M38.9977 14.31C37.6577 13.73 36.5077 12.94 35.5477 11.94C34.5877 10.92 33.8777 9.78 33.4177 8.52C32.9577 9.86 32.2277 11.11 31.2277 12.27C30.2477 13.43 29.0877 14.32 27.7477 14.94L26.8477 13.71C27.6877 13.33 28.4577 12.83 29.1577 12.21C29.8777 11.59 30.4877 10.91 30.9877 10.17C31.5077 9.43 31.9077 8.66 32.1877 7.86C32.4877 7.06 32.6377 6.28 32.6377 5.52V1.65H34.1677V5.52C34.1677 6.28 34.3077 7.04 34.5877 7.8C34.8677 8.56 35.2577 9.28 35.7577 9.96C36.2577 10.62 36.8477 11.22 37.5277 11.76C38.2277 12.3 38.9977 12.73 39.8377 13.05L38.9977 14.31ZM31.3177 17.7H48.8977V26.64H47.3077V19.05H31.3177V17.7ZM48.8977 0.0299997V16.05H47.3677V8.58H43.1677V15.93H41.6377V0.48H43.1677V7.23H47.3677V0.0299997H48.8977Z" fill="white"/>
</svg>
